<svg id="google.svg" xmlns="http://www.w3.org/2000/svg" width="38" height="38" viewBox="0 0 38 38">
  <defs>
    <style>
      .cls-1 {
        fill: #fff;
        stroke: #f2f2f2;
        stroke-linejoin: round;
        stroke-width: 2px;
      }

      .cls-2 {
        fill: #3c3c3c;
        fill-rule: evenodd;
      }
    </style>
  </defs>
  <circle id="base" class="cls-1" cx="19" cy="19" r="16"/>
  <path id="g_" data-name="g+" class="cls-2" d="M1258.52,46.223c-1.63-1.163-2.24-1.712-1.2-2.634s1.87-1.668,1.87-3.381a3.222,3.222,0,0,0-1.41-2.589,3.1,3.1,0,0,0,1.57-.155,5.944,5.944,0,0,0,.78-0.5h-5.2c-1.05,0-3.94,1.184-3.94,3.95s3,3.36,4.09,3.315a1.263,1.263,0,0,0,.24,1.777c0.33,0.351.26,0.461-.13,0.461s-5.23.053-5.23,3.514,6.43,3.711,8.54,1.846A3.482,3.482,0,0,0,1258.52,46.223Zm-3.09-2.678c-2.59,0-3.77-6.057-.72-6.057C1257.08,37.4,1258.87,43.545,1255.43,43.545Zm-0.31,8.473c-2.15,0-3.31-1.075-3.31-2.678s1.57-2.393,4.51-2.393c0.8,0.614,2.22,1.36,2.22,2.854S1257.27,52.018,1255.12,52.018ZM1263.02,37v1.97h1.95v1.023h-1.95v1.972H1262V39.993h-1.99V38.97H1262V37h1.02Z" transform="translate(-1237 -26)"/>
</svg>
