<svg id="instagramm.svg" xmlns="http://www.w3.org/2000/svg" width="38" height="38" viewBox="0 0 38 38">
  <defs>
    <style>
      .cls-1 {
        fill: #fff;
        stroke: #f2f2f2;
        stroke-linejoin: round;
        stroke-width: 2px;
      }

      .cls-2 {
        fill: #3c3c3c;
        fill-rule: evenodd;
      }
    </style>
  </defs>
  <circle id="base" class="cls-1" cx="19" cy="19" r="16"/>
  <path id="icon" class="cls-2" d="M1214.52,36h-11.04a3.483,3.483,0,0,0-3.48,3.48V50.523a3.483,3.483,0,0,0,3.48,3.48h11.04a3.483,3.483,0,0,0,3.48-3.48V39.478A3.483,3.483,0,0,0,1214.52,36Zm1.1,2.013,0.39,0V41l-3.01.009-0.01-2.989ZM1209,41.988A3.012,3.012,0,1,1,1205.99,45,3.017,3.017,0,0,1,1209,41.988Zm7.03,8.317a1.726,1.726,0,0,1-1.73,1.725h-10.64a1.723,1.723,0,0,1-1.72-1.725V43h2.5a5.78,5.78,0,0,0-.36,2,4.92,4.92,0,1,0,9.84,0,5.78,5.78,0,0,0-.36-2h2.47V50.3Z" transform="translate(-1190 -26)"/>
</svg>
