<svg id="pinterest.svg" xmlns="http://www.w3.org/2000/svg" width="38" height="38" viewBox="0 0 38 38">
  <defs>
    <style>
      .cls-1 {
        fill: #fff;
        stroke: #f2f2f2;
        stroke-linejoin: round;
        stroke-width: 2px;
      }

      .cls-2 {
        fill: #3c3c3c;
        fill-rule: evenodd;
      }
    </style>
  </defs>
  <circle id="base" class="cls-1" cx="19" cy="19" r="16"/>
  <path id="p" class="cls-2" d="M1162.48,36.006c-5.63,0-8.48,3.913-8.48,7.176,0,1.976.78,3.734,2.43,4.389a0.415,0.415,0,0,0,.6-0.287c0.05-.2.18-0.71,0.24-0.922a0.544,0.544,0,0,0-.17-0.64,3.235,3.235,0,0,1-.78-2.253,5.531,5.531,0,0,1,5.84-5.5c3.18,0,4.93,1.885,4.93,4.4,0,3.313-1.51,6.108-3.76,6.108a1.793,1.793,0,0,1-1.87-2.213,23.7,23.7,0,0,0,1.05-4.076,1.557,1.557,0,0,0-1.6-1.724c-1.27,0-2.29,1.271-2.29,2.974a4.29,4.29,0,0,0,.38,1.818s-1.3,5.327-1.53,6.26a12.33,12.33,0,0,0-.03,4.365,0.158,0.158,0,0,0,.28.066,12.047,12.047,0,0,0,2.14-3.76c0.15-.511.84-3.158,0.84-3.158a3.414,3.414,0,0,0,2.89,1.432c3.82,0,6.41-3.366,6.41-7.873C1170,39.18,1167.01,36.006,1162.48,36.006Z" transform="translate(-1143 -26)"/>
</svg>
